<?xml version="1.0" encoding="UTF-8"?>
<svg version="1.1" xmlns="http://www.w3.org/2000/svg" width="200" height="200">
<path d="M0 0 C0.89847656 0.42925781 1.79695312 0.85851563 2.72265625 1.30078125 C18.13049253 9.17097101 30.33545569 20.75538981 40 35 C40.52464844 35.74507812 41.04929688 36.49015625 41.58984375 37.2578125 C45.14050695 42.66386204 47.4843677 48.40994096 49.75 54.4375 C50.04398682 55.21222656 50.33797363 55.98695312 50.64086914 56.78515625 C54.46270266 67.36903558 55.36568203 77.60780584 55.3125 88.8125 C55.30686035 90.05354492 55.3012207 91.29458984 55.29541016 92.57324219 C55.18175623 101.1276696 54.69057818 108.82673422 52 117 C51.70198486 117.94093506 51.70198486 117.94093506 51.39794922 118.90087891 C46.70846625 133.46813424 39.12863156 145.51717411 29 157 C28.46117187 157.62261719 27.92234375 158.24523437 27.3671875 158.88671875 C12.81490975 174.57246537 -10.72595321 185.94759839 -32.07348633 187.17700195 C-52.01956971 187.55210249 -68.82099751 186.79296433 -87 178 C-87.89847656 177.57074219 -88.79695313 177.14148438 -89.72265625 176.69921875 C-105.13049253 168.82902899 -117.33545569 157.24461019 -127 143 C-127.52464844 142.25492188 -128.04929688 141.50984375 -128.58984375 140.7421875 C-132.14050695 135.33613796 -134.4843677 129.59005904 -136.75 123.5625 C-137.04398682 122.78777344 -137.33797363 122.01304687 -137.64086914 121.21484375 C-141.46270266 110.63096442 -142.36568203 100.39219416 -142.3125 89.1875 C-142.30686035 87.94645508 -142.3012207 86.70541016 -142.29541016 85.42675781 C-142.18175623 76.8723304 -141.69057818 69.17326578 -139 61 C-138.70198486 60.05906494 -138.70198486 60.05906494 -138.39794922 59.09912109 C-133.70846625 44.53186576 -126.12863156 32.48282589 -116 21 C-115.46117188 20.37738281 -114.92234375 19.75476563 -114.3671875 19.11328125 C-86.0977202 -11.35807923 -36.51817251 -17.66339975 0 0 Z " fill="#FF1400" transform="translate(144,11)"/>
<path d="M0 0 C-0.1451001 0.58974609 -0.2902002 1.17949219 -0.43969727 1.78710938 C-4.10605161 16.74389267 -7.52474768 31.73672318 -10.72680664 46.79882812 C-11.01186281 48.1263061 -11.2969368 49.45378025 -11.58203125 50.78125 C-11.83186768 51.95751953 -12.0817041 53.13378906 -12.33911133 54.34570312 C-13 57 -13 57 -14 58 C-16.86267567 58.07325168 -19.700719 58.09238205 -22.5625 58.0625 C-23.36880859 58.05798828 -24.17511719 58.05347656 -25.00585938 58.04882812 C-27.00393756 58.03700518 -29.00197783 58.01906914 -31 58 C-30.35901851 54.54074898 -29.71139409 51.08277476 -29.0625 47.625 C-28.88009766 46.64015625 -28.69769531 45.6553125 -28.50976562 44.640625 C-28.33251953 43.69960937 -28.15527344 42.75859375 -27.97265625 41.7890625 C-27.72914429 40.48509521 -27.72914429 40.48509521 -27.48071289 39.15478516 C-27 37 -27 37 -26 35 C-57.37148186 49.38061281 -87.97535309 67.26660623 -102.0703125 100.4140625 C-106.33601137 112.27915768 -106.11708265 123.63803468 -100.75 135.0625 C-94.34336635 147.17214858 -84.46269161 153.30513708 -71.57543945 157.50170898 C-66.7797332 158.94404978 -62.16604392 159.61794722 -57.171875 159.76171875 C-55 160 -55 160 -52 162 C-72.21401905 163.20480908 -94.54455575 158.67497707 -110 145 C-115.79524665 139.1184182 -118.61386225 132.82550551 -121 125 C-121.33 124.01 -121.66 123.02 -122 122 C-123.47723962 97.25018206 -114.85564154 79.47814057 -98.6875 60.9375 C-85.04629175 46.21812065 -19.88705006 -9.94352503 0 0 Z " fill="#FFFAFA" transform="translate(154,26)"/>
</svg>
